<svg xmlns="http://www.w3.org/2000/svg" xmlns:xlink="http://www.w3.org/1999/xlink" width="86" zoomAndPan="magnify" viewBox="0 0 64.5 62.999997" height="84" preserveAspectRatio="xMidYMid meet" version="1.0"><defs><clipPath id="cdf9ae2052"><path d="M 0 0.242188 L 63.746094 0.242188 L 63.746094 62.757812 L 0 62.757812 Z M 0 0.242188 " clip-rule="nonzero"/></clipPath></defs><g clip-path="url(#cdf9ae2052)"><path fill="#ffffff" d="M 33.320312 16.488281 C 33.535156 16.398438 33.664062 16.160156 33.6875 15.933594 C 32.921875 15.542969 32.125 15.144531 31.304688 14.730469 C 31.976562 15.316406 32.648438 15.902344 33.320312 16.488281 Z M 44.164062 26.585938 C 44.25 26.320312 44.324219 26.054688 44.386719 25.78125 C 41.335938 22.882812 38.089844 20.179688 34.691406 17.699219 C 37.933594 20.570312 41.128906 23.5 44.164062 26.585938 Z M 49.300781 32.152344 C 50.839844 33.964844 52.296875 35.84375 53.625 37.816406 C 53.382812 37.355469 53.144531 36.890625 52.902344 36.429688 C 52.902344 36.425781 52.902344 36.429688 52.898438 36.425781 C 52.875 36.410156 52.863281 36.382812 52.867188 36.355469 C 52.308594 35.292969 51.738281 34.234375 51.164062 33.175781 C 51.152344 33.171875 51.144531 33.164062 51.140625 33.152344 C 49.585938 31.148438 47.878906 29.242188 46.089844 27.441406 C 45.5625 26.914062 45.03125 26.394531 44.488281 25.878906 C 44.421875 26.148438 44.34375 26.414062 44.257812 26.679688 C 45.996094 28.449219 47.6875 30.265625 49.300781 32.152344 Z M 60.269531 39.707031 C 61.457031 38.289062 62.742188 37.410156 63.085938 37.1875 C 62.714844 36.824219 62.289062 36.421875 61.820312 35.988281 C 59.574219 36.5 57.667969 37.832031 56.585938 39.894531 C 56.324219 40.398438 56.097656 40.929688 55.980469 41.488281 C 55.941406 41.660156 55.914062 41.835938 55.90625 42.011719 C 56.605469 43.449219 57.285156 44.894531 57.9375 46.351562 C 57.710938 43.445312 59.058594 41.152344 60.269531 39.707031 Z M 62.992188 19.101562 C 63.140625 18.820312 63.296875 18.542969 63.457031 18.265625 C 63.1875 18.347656 62.859375 18.441406 62.640625 18.507812 C 62.339844 18.589844 61.914062 18.691406 61.589844 18.773438 C 61.5 18.890625 60.234375 20.535156 59.300781 23.074219 C 58.414062 25.484375 57.652344 29.214844 59.0625 33.320312 C 60.003906 34.132812 60.882812 34.90625 61.652344 35.613281 C 59.148438 30.355469 60.421875 24.101562 62.992188 19.101562 Z M 59.539062 2.667969 C 59.546875 1.992188 59.5625 1.320312 59.597656 0.644531 C 59.339844 1.054688 59.078125 1.464844 58.816406 1.875 C 58.8125 1.894531 58.800781 1.910156 58.785156 1.917969 C 58.285156 2.703125 57.777344 3.484375 57.265625 4.261719 C 57.359375 5.542969 57.542969 6.824219 57.789062 8.085938 C 58.503906 11.558594 59.875 16.21875 63.308594 17.890625 C 60.042969 14.171875 59.554688 7.398438 59.539062 2.667969 Z M 52.890625 3.132812 C 52.003906 3.226562 51 3.292969 49.929688 3.292969 C 49.164062 3.292969 48.363281 3.257812 47.546875 3.179688 C 47.5625 3.183594 47.578125 3.1875 47.589844 3.191406 C 47.789062 3.242188 48.351562 3.378906 48.558594 3.429688 L 49.210938 3.5625 C 51.824219 4.0625 54.511719 4.21875 57.164062 4.019531 C 57.167969 4.019531 57.171875 4.019531 57.171875 4.019531 C 57.175781 4.019531 57.179688 4.019531 57.183594 4.019531 C 57.195312 4.023438 57.210938 4.027344 57.21875 4.035156 C 57.664062 3.359375 58.105469 2.683594 58.542969 2.003906 C 57.863281 2.214844 55.6875 2.839844 52.890625 3.132812 Z M 41.007812 0.539062 C 40.503906 0.796875 38.058594 2.003906 34.644531 2.796875 C 32.402344 3.320312 30.183594 3.5625 28.050781 3.519531 C 25.554688 3.472656 23.175781 3.03125 20.964844 2.210938 C 21.457031 2.621094 21.945312 3.03125 22.433594 3.441406 C 22.441406 3.445312 22.445312 3.449219 22.449219 3.453125 C 22.851562 3.792969 23.253906 4.128906 23.65625 4.464844 C 24.023438 4.578125 24.394531 4.667969 24.769531 4.753906 C 30.226562 5.960938 36.597656 5.539062 40.90625 1.628906 L 41.011719 1.527344 C 41.011719 1.527344 41.140625 1.40625 41.191406 1.363281 C 41.101562 0.960938 41.039062 0.679688 41.007812 0.539062 Z M 20.53125 2.058594 C 18.132812 3.652344 14.703125 3.988281 12.242188 3.988281 C 10.894531 3.988281 9.679688 3.886719 8.804688 3.789062 C 9.277344 3.902344 9.75 4.007812 10.226562 4.105469 C 13.644531 4.757812 19.230469 5.550781 22.257812 3.507812 C 21.679688 3.023438 21.105469 2.542969 20.53125 2.058594 Z M 15.996094 7.203125 C 16.339844 7.234375 16.691406 7.246094 17.039062 7.238281 C 19.273438 7.195312 21.613281 6.511719 23.207031 4.871094 C 23.253906 4.828125 23.339844 4.730469 23.382812 4.683594 C 23.382812 4.683594 23.449219 4.605469 23.5 4.550781 C 23.128906 4.238281 22.757812 3.925781 22.386719 3.613281 C 18.921875 5.796875 12.554688 4.816406 8.367188 3.832031 C 10.914062 4.917969 13.476562 6.050781 15.996094 7.203125 Z M 25.929688 11.628906 C 25.636719 10.730469 25.582031 9.753906 25.789062 8.832031 C 25.277344 9.644531 24.605469 10.351562 23.785156 10.855469 C 24.550781 11.222656 25.304688 11.589844 26.046875 11.949219 C 26.003906 11.84375 25.964844 11.738281 25.929688 11.628906 Z M 30.8125 14.003906 C 30.992188 13.539062 31.101562 13.039062 31.128906 12.542969 C 31.164062 11.941406 31.105469 11.320312 30.941406 10.738281 C 30.28125 10.195312 29.617188 9.644531 28.945312 9.085938 C 28.976562 9.191406 29.003906 9.300781 29.023438 9.394531 C 29.238281 10.332031 29.257812 11.320312 29.113281 12.273438 C 29.058594 12.632812 28.984375 12.988281 28.875 13.339844 C 29.496094 13.644531 30.105469 13.949219 30.703125 14.246094 C 30.738281 14.164062 30.789062 14.058594 30.8125 14.003906 Z M 33.714844 15.761719 C 33.839844 15.386719 33.9375 15 34.007812 14.609375 C 34.078125 14.203125 34.128906 13.789062 34.152344 13.378906 C 33.175781 12.578125 32.175781 11.757812 31.15625 10.917969 C 31.210938 11.144531 31.25 11.375 31.273438 11.601562 C 31.363281 12.46875 31.269531 13.371094 30.914062 14.171875 C 30.914062 14.171875 30.878906 14.257812 30.847656 14.320312 C 31.84375 14.816406 32.800781 15.300781 33.714844 15.761719 Z M 50.707031 32.34375 C 50.695312 32.335938 50.6875 32.324219 50.679688 32.308594 C 49.714844 30.589844 48.441406 29.058594 47.125 27.59375 C 46.328125 26.730469 45.5 25.894531 44.65625 25.074219 C 44.617188 25.3125 44.570312 25.546875 44.515625 25.78125 C 45.253906 26.480469 45.984375 27.191406 46.695312 27.917969 C 48.105469 29.351562 49.457031 30.839844 50.734375 32.390625 C 50.722656 32.375 50.714844 32.359375 50.707031 32.34375 Z M 52.960938 36.203125 C 53.152344 35.957031 53.675781 35.328125 54.503906 34.703125 C 55.425781 34.015625 56.898438 33.222656 58.757812 33.273438 C 57.769531 32.417969 56.714844 31.527344 55.644531 30.628906 C 55.113281 30.691406 54.585938 30.808594 54.082031 30.988281 C 52.976562 31.394531 51.941406 32.117188 51.304688 33.117188 C 51.863281 34.144531 52.417969 35.171875 52.960938 36.203125 Z M 55.109375 7.480469 C 55.121094 7.734375 55.117188 8.054688 55.140625 8.296875 C 55.148438 8.378906 55.179688 8.75 55.183594 8.820312 C 55.214844 9.054688 55.246094 9.320312 55.285156 9.550781 C 55.542969 11.074219 56.105469 12.546875 56.890625 13.875 C 58.039062 15.777344 59.605469 17.480469 61.527344 18.621094 C 61.878906 18.535156 62.273438 18.429688 62.59375 18.351562 C 62.84375 18.28125 63.140625 18.1875 63.40625 18.109375 C 60.984375 16.964844 59.605469 14.425781 58.722656 12.007812 C 57.863281 9.578125 57.363281 7.039062 57.121094 4.476562 C 56.460938 5.484375 55.789062 6.484375 55.109375 7.480469 Z M 28.828125 8.773438 C 33.011719 8.824219 38.410156 7.921875 41.207031 4.523438 C 41.386719 4.300781 41.550781 4.066406 41.707031 3.824219 C 41.523438 2.914062 41.363281 2.164062 41.242188 1.597656 C 41.085938 1.835938 40.910156 2.054688 40.730469 2.269531 C 38.34375 5.046875 34.738281 6.492188 31.167969 6.9375 C 29.710938 7.113281 28.234375 7.152344 26.769531 7.066406 C 27.460938 7.640625 28.144531 8.210938 28.828125 8.773438 Z M 31.039062 10.609375 C 33.570312 10.527344 36.113281 10.082031 38.476562 9.164062 C 39.875 8.605469 41.210938 7.839844 42.285156 6.777344 C 42.097656 5.769531 41.917969 4.851562 41.753906 4.046875 C 41.621094 4.246094 41.480469 4.441406 41.332031 4.628906 C 38.550781 8.011719 33.234375 8.957031 29.023438 8.941406 C 29.703125 9.503906 30.375 10.058594 31.039062 10.609375 Z M 32.890625 12.132812 C 35.972656 12.523438 39.785156 12.132812 42.214844 10.039062 C 42.414062 9.871094 42.597656 9.679688 42.777344 9.488281 C 42.71875 9.152344 42.660156 8.820312 42.601562 8.496094 C 41.980469 8.816406 38.300781 10.625 34.390625 10.625 C 34.058594 10.625 33.730469 10.609375 33.398438 10.582031 C 32.667969 10.671875 31.941406 10.730469 31.226562 10.761719 C 31.789062 11.226562 32.34375 11.683594 32.890625 12.132812 Z M 34.269531 13.261719 C 37.265625 13.515625 40.625 13.050781 43.070312 11.191406 C 42.984375 10.675781 42.898438 10.171875 42.8125 9.683594 C 42.527344 9.960938 42.226562 10.222656 41.902344 10.453125 C 39.679688 12.027344 36.859375 12.445312 34.191406 12.386719 C 33.835938 12.375 33.480469 12.355469 33.121094 12.324219 C 33.507812 12.640625 33.890625 12.953125 34.269531 13.261719 Z M 33.800781 15.804688 C 35.039062 16.4375 36.203125 17.03125 37.273438 17.585938 C 37.34375 17.191406 37.339844 16.785156 37.257812 16.394531 C 37.238281 16.3125 37.21875 16.222656 37.191406 16.144531 C 37.144531 15.984375 37.066406 15.832031 36.988281 15.683594 C 36.117188 14.980469 35.222656 14.25 34.304688 13.503906 C 34.257812 14.101562 34.15625 14.691406 33.984375 15.261719 C 33.929688 15.445312 33.859375 15.621094 33.785156 15.796875 C 33.789062 15.800781 33.792969 15.804688 33.800781 15.804688 Z M 44.625 24.203125 C 44.445312 24.03125 44.269531 23.859375 44.105469 23.703125 C 42.027344 21.742188 39.867188 19.867188 37.652344 18.066406 L 37.464844 17.917969 L 37.375 17.84375 C 37.355469 17.824219 37.332031 17.808594 37.3125 17.789062 C 36.441406 17.339844 35.507812 16.859375 34.515625 16.355469 C 37.417969 18.578125 40.242188 20.914062 42.945312 23.371094 C 43.488281 23.867188 44.023438 24.371094 44.550781 24.878906 C 44.582031 24.652344 44.609375 24.429688 44.625 24.203125 Z M 48.347656 28.140625 C 47.542969 27.179688 46.683594 26.261719 45.804688 25.367188 C 45.480469 25.035156 45.113281 24.675781 44.753906 24.328125 C 44.730469 24.546875 44.703125 24.769531 44.667969 24.988281 C 45.53125 25.816406 46.375 26.664062 47.183594 27.539062 C 48.078125 28.511719 48.945312 29.511719 49.726562 30.578125 C 49.273438 29.761719 48.808594 28.949219 48.347656 28.140625 Z M 54.496094 29.675781 C 53.742188 29.839844 53.011719 30.132812 52.371094 30.570312 C 51.742188 31.011719 51.183594 31.585938 50.851562 32.28125 C 50.972656 32.503906 51.09375 32.730469 51.21875 32.953125 C 51.691406 32.238281 52.363281 31.671875 53.105469 31.253906 C 53.835938 30.84375 54.648438 30.597656 55.472656 30.488281 C 55.148438 30.214844 54.824219 29.945312 54.496094 29.675781 Z M 54.984375 8.308594 C 54.96875 8.132812 54.960938 7.914062 54.953125 7.710938 C 54.53125 8.328125 54.109375 8.941406 53.683594 9.550781 C 53.28125 11.464844 53.800781 13.449219 54.582031 15.203125 C 54.773438 15.597656 54.980469 15.996094 55.21875 16.363281 C 55.34375 16.519531 55.46875 16.667969 55.601562 16.816406 C 56.195312 17.480469 56.871094 18.074219 57.609375 18.574219 C 57.96875 18.816406 58.347656 19.039062 58.734375 19.214844 C 59.582031 19.046875 60.429688 18.871094 61.277344 18.679688 C 61.285156 18.679688 61.296875 18.675781 61.308594 18.675781 C 61.128906 18.558594 60.949219 18.4375 60.777344 18.3125 C 58.269531 16.464844 56.285156 13.835938 55.429688 10.824219 C 55.246094 10.171875 55.117188 9.507812 55.03125 8.839844 C 55.023438 8.722656 54.992188 8.421875 54.984375 8.308594 Z M 42.449219 6.753906 C 43.363281 7.328125 44.382812 7.730469 45.414062 8.042969 C 48.425781 8.945312 51.796875 8.929688 54.65625 7.546875 C 53.996094 7.609375 53.355469 7.636719 52.746094 7.636719 C 49.421875 7.636719 46.851562 6.816406 45.171875 6.050781 C 43.410156 5.242188 42.300781 4.355469 41.914062 4.019531 C 42.078125 4.824219 42.257812 5.742188 42.449219 6.753906 Z M 42.324219 6.972656 C 41.988281 7.292969 41.628906 7.589844 41.253906 7.863281 C 39.148438 9.328125 36.558594 10.128906 33.960938 10.507812 C 38.066406 10.652344 42.039062 8.664062 42.582031 8.382812 C 42.492188 7.894531 42.40625 7.425781 42.324219 6.972656 Z M 42.941406 9.460938 C 42.988281 9.484375 43.183594 9.589844 43.183594 9.589844 C 43.253906 9.625 43.390625 9.695312 43.464844 9.730469 C 43.605469 9.800781 43.886719 9.925781 44.035156 9.984375 C 46.347656 10.957031 48.921875 11.203125 51.402344 10.964844 C 51.804688 10.921875 52.210938 10.867188 52.605469 10.789062 C 53.335938 9.757812 54.0625 8.714844 54.777344 7.671875 C 54.375 7.867188 53.960938 8.039062 53.539062 8.1875 C 50.914062 9.097656 48.011719 8.984375 45.367188 8.203125 C 44.367188 7.898438 43.386719 7.515625 42.488281 6.96875 C 42.636719 7.75 42.785156 8.582031 42.941406 9.460938 Z M 43.230469 11.171875 C 43.527344 11.34375 43.839844 11.492188 44.160156 11.632812 C 45.800781 12.328125 47.597656 12.671875 49.386719 12.621094 C 50.085938 12.597656 50.785156 12.515625 51.472656 12.371094 C 51.808594 11.910156 52.136719 11.445312 52.46875 10.984375 C 52.121094 11.046875 51.769531 11.089844 51.421875 11.128906 C 49.273438 11.335938 47.074219 11.175781 45.007812 10.523438 C 44.878906 10.476562 44.683594 10.414062 44.558594 10.371094 L 44.261719 10.257812 L 44.117188 10.199219 C 43.902344 10.109375 43.601562 9.980469 43.390625 9.875 C 43.261719 9.816406 43.113281 9.738281 42.976562 9.664062 C 43.0625 10.15625 43.144531 10.660156 43.230469 11.171875 Z M 37.097656 15.558594 C 37.632812 15.765625 38.195312 15.90625 38.769531 15.960938 C 38.886719 15.972656 39.007812 15.976562 39.125 15.980469 C 40.453125 15.957031 41.675781 15.191406 42.585938 14.273438 C 42.890625 13.96875 43.167969 13.628906 43.402344 13.269531 C 43.300781 12.625 43.199219 11.992188 43.097656 11.371094 C 40.914062 13.007812 38.085938 13.519531 35.40625 13.492188 C 35.101562 13.484375 34.800781 13.472656 34.5 13.449219 C 35.382812 14.171875 36.25 14.875 37.097656 15.558594 Z M 44.65625 23.390625 C 44.652344 22.78125 44.59375 22.167969 44.480469 21.570312 C 44.175781 21.402344 41.765625 20.097656 38.015625 18.152344 C 40.144531 19.890625 42.21875 21.699219 44.21875 23.582031 C 44.359375 23.71875 44.5 23.855469 44.640625 23.992188 C 44.652344 23.789062 44.660156 23.589844 44.65625 23.390625 Z M 44.703125 21.921875 C 44.769531 22.410156 44.804688 22.898438 44.804688 23.390625 C 44.804688 23.632812 44.789062 23.875 44.773438 24.113281 C 45.855469 25.164062 46.917969 26.25 47.914062 27.382812 C 46.859375 25.550781 45.785156 23.734375 44.703125 21.921875 Z M 50.003906 30.75 C 51.480469 29.324219 53.570312 29.414062 54.28125 29.496094 C 53 28.433594 51.726562 27.390625 50.539062 26.425781 C 50.324219 26.46875 50.113281 26.539062 49.914062 26.636719 C 49.292969 26.941406 48.804688 27.492188 48.527344 28.121094 C 49.023438 28.996094 49.515625 29.871094 50.003906 30.75 Z M 50.988281 31.714844 C 51.332031 31.210938 51.777344 30.78125 52.277344 30.4375 C 52.847656 30.046875 53.484375 29.769531 54.148438 29.589844 C 53.351562 29.519531 51.425781 29.507812 50.058594 30.847656 C 50.289062 31.265625 50.519531 31.683594 50.75 32.105469 C 50.820312 31.964844 50.902344 31.839844 50.988281 31.714844 Z M 54.449219 26.546875 C 54.335938 26.371094 53.996094 25.785156 53.769531 24.839844 C 53.527344 23.832031 53.390625 22.214844 54.0625 20.21875 C 53.890625 20.246094 53.71875 20.273438 53.542969 20.300781 C 53.316406 20.464844 53.105469 20.660156 52.902344 20.855469 C 51.871094 21.878906 51.109375 23.1875 50.796875 24.609375 C 50.738281 24.894531 50.6875 25.179688 50.664062 25.46875 C 50.640625 25.746094 50.636719 26.023438 50.644531 26.300781 C 51.84375 27.273438 53.128906 28.328125 54.425781 29.402344 C 54.359375 28.453125 54.363281 27.496094 54.449219 26.546875 Z M 54.988281 20.066406 C 54.976562 20.070312 54.964844 20.070312 54.949219 20.070312 C 54.695312 20.113281 54.441406 20.15625 54.183594 20.199219 C 53.5 22.195312 53.636719 23.808594 53.875 24.808594 C 54.054688 25.570312 54.320312 26.105469 54.464844 26.363281 C 54.617188 24.835938 54.96875 23.332031 55.542969 21.90625 C 55.851562 21.160156 56.234375 20.441406 56.683594 19.769531 C 56.121094 19.871094 55.554688 19.96875 54.988281 20.066406 Z M 43.566406 13.257812 C 43.570312 13.269531 43.570312 13.277344 43.570312 13.285156 C 43.628906 13.65625 43.683594 14.03125 43.742188 14.410156 C 44.222656 14.75 44.769531 14.992188 45.335938 15.160156 C 46.144531 15.398438 46.996094 15.503906 47.84375 15.511719 C 48.3125 15.511719 48.785156 15.484375 49.242188 15.40625 C 49.949219 14.464844 50.644531 13.519531 51.335938 12.566406 C 50.691406 12.6875 50.042969 12.761719 49.390625 12.785156 C 47.941406 12.828125 46.488281 12.613281 45.109375 12.164062 C 44.472656 11.953125 43.855469 11.699219 43.265625 11.375 C 43.367188 11.988281 43.46875 12.617188 43.566406 13.257812 Z M 42.144531 15.320312 C 42.652344 15.078125 43.144531 14.78125 43.578125 14.425781 C 43.53125 14.113281 43.484375 13.804688 43.4375 13.5 C 43.210938 13.8125 42.960938 14.101562 42.6875 14.375 C 42.007812 15.046875 41.191406 15.597656 40.285156 15.902344 C 40.925781 15.800781 41.554688 15.601562 42.144531 15.320312 Z M 44.046875 17.804688 C 43.421875 18.320312 42.636719 18.609375 41.84375 18.734375 C 41.621094 18.769531 41.40625 18.789062 41.1875 18.820312 C 42.351562 19.734375 43.449219 20.578125 44.457031 21.339844 C 44.332031 20.152344 44.195312 18.96875 44.046875 17.804688 Z M 46.308594 24.28125 C 46.550781 24.019531 46.917969 23.917969 47.261719 23.890625 C 47.304688 23.886719 47.351562 23.886719 47.394531 23.886719 C 46.226562 22.949219 45.328125 22.234375 44.863281 21.863281 C 45.347656 22.664062 45.832031 23.472656 46.308594 24.28125 Z M 51.941406 20.554688 C 51.363281 21.378906 50.917969 22.316406 50.65625 23.292969 C 50.441406 24.078125 50.375 24.910156 50.507812 25.714844 C 50.65625 23.863281 51.511719 22.09375 52.804688 20.761719 C 52.941406 20.621094 53.082031 20.484375 53.230469 20.351562 C 52.800781 20.421875 52.371094 20.488281 51.941406 20.554688 Z M 44.183594 17.59375 C 44.875 18.035156 45.726562 18.257812 46.542969 18.148438 C 46.808594 18.113281 47.070312 18.035156 47.320312 17.933594 C 47.394531 17.839844 47.46875 17.742188 47.539062 17.652344 C 48.070312 16.964844 48.59375 16.273438 49.113281 15.578125 C 47.714844 15.691406 46.289062 15.597656 44.953125 15.160156 C 44.539062 15.023438 44.144531 14.84375 43.773438 14.617188 C 43.914062 15.589844 44.054688 16.585938 44.183594 17.59375 Z M 44.296875 18.496094 C 45.03125 19.277344 46.257812 18.996094 46.550781 18.914062 C 46.742188 18.667969 46.933594 18.421875 47.125 18.179688 C 46.386719 18.421875 45.570312 18.378906 44.84375 18.105469 C 44.625 18.023438 44.414062 17.925781 44.210938 17.804688 C 44.242188 18.035156 44.269531 18.265625 44.296875 18.496094 Z M 45.519531 20.203125 C 45.820312 19.832031 46.128906 19.441406 46.4375 19.054688 C 46.003906 19.152344 45.003906 19.289062 44.320312 18.671875 C 44.425781 19.546875 44.527344 20.425781 44.617188 21.3125 C 44.808594 21.074219 45.519531 20.203125 45.519531 20.203125 Z M 47.574219 23.820312 C 47.652344 23.292969 47.796875 22.785156 48.003906 22.296875 C 48.199219 21.835938 48.464844 21.398438 48.792969 21.019531 C 47.449219 21.210938 46.105469 21.398438 44.757812 21.574219 C 45.128906 21.867188 46.164062 22.6875 47.574219 23.820312 Z M 48.734375 21.359375 C 48.175781 22.101562 47.851562 23.019531 47.722656 23.9375 C 48.070312 24.21875 48.4375 24.515625 48.824219 24.824219 C 48.574219 24.253906 48.125 22.867188 48.734375 21.359375 Z M 49.371094 20.941406 C 49.265625 20.957031 49.15625 20.96875 49.050781 20.984375 C 49.035156 21 49.023438 21.015625 49.003906 21.035156 C 48.046875 22.882812 48.835938 24.625 49.019531 24.984375 C 49.464844 25.34375 49.933594 25.722656 50.417969 26.117188 C 50.0625 24.660156 50.402344 23.117188 51.039062 21.785156 C 51.238281 21.367188 51.460938 20.96875 51.722656 20.589844 C 50.9375 20.707031 50.152344 20.824219 49.371094 20.941406 Z M 47.527344 18.824219 C 47.726562 19.355469 48.078125 19.820312 48.457031 20.242188 C 48.636719 20.445312 48.832031 20.640625 49.035156 20.820312 C 49.921875 20.695312 50.804688 20.566406 51.691406 20.429688 C 50.246094 19.328125 49.054688 17.621094 49.183594 15.757812 C 48.613281 16.515625 48.035156 17.269531 47.453125 18.019531 C 47.390625 18.28125 47.433594 18.5625 47.527344 18.824219 Z M 48.796875 20.808594 C 48.644531 20.65625 48.496094 20.496094 48.355469 20.332031 C 47.886719 19.769531 47.296875 19.015625 47.28125 18.242188 C 47.089844 18.484375 46.898438 18.730469 46.707031 18.972656 C 46.828125 19.234375 47.476562 20.484375 48.796875 20.808594 Z M 45.648438 20.304688 C 45.648438 20.304688 45.027344 21.066406 44.75 21.40625 C 46.042969 21.234375 47.335938 21.058594 48.632812 20.878906 C 47.425781 20.511719 46.800781 19.410156 46.632812 19.070312 C 46.304688 19.484375 45.976562 19.894531 45.648438 20.304688 Z M 51.5 12.625 C 51.09375 13.1875 50.683594 13.746094 50.273438 14.304688 C 50.300781 14.503906 50.34375 14.710938 50.398438 14.910156 C 50.78125 16.328125 51.757812 17.609375 53.207031 18 C 52.683594 17.039062 52.382812 15.960938 52.386719 14.863281 C 52.03125 14.144531 51.734375 13.394531 51.5 12.625 Z M 56.609375 19.617188 C 55.328125 18.898438 54.28125 17.8125 53.425781 16.628906 C 53.101562 16.167969 52.8125 15.6875 52.550781 15.191406 C 52.582031 16.191406 52.875 17.171875 53.367188 18.042969 C 53.375 18.042969 53.382812 18.046875 53.390625 18.046875 C 53.457031 18.0625 53.46875 18.128906 53.441406 18.171875 C 53.722656 18.640625 54.058594 19.074219 54.445312 19.457031 C 54.613281 19.617188 54.789062 19.773438 54.976562 19.90625 C 55.519531 19.8125 56.066406 19.714844 56.609375 19.617188 Z M 53.523438 20.144531 C 53.9375 20.078125 54.355469 20.007812 54.769531 19.941406 C 54.621094 19.816406 54.484375 19.6875 54.351562 19.546875 C 53.953125 19.140625 53.609375 18.6875 53.320312 18.195312 C 51.742188 17.753906 50.710938 16.484375 50.257812 14.949219 C 50.210938 14.796875 50.171875 14.640625 50.140625 14.480469 C 49.886719 14.820312 49.632812 15.164062 49.375 15.507812 C 49.164062 16.96875 49.863281 18.398438 50.847656 19.445312 C 51.175781 19.796875 51.535156 20.121094 51.917969 20.398438 C 52.4375 20.316406 52.957031 20.234375 53.476562 20.152344 C 53.492188 20.144531 53.507812 20.140625 53.523438 20.144531 Z M 50.378906 26.292969 C 49.367188 25.472656 48.425781 24.710938 47.601562 24.054688 C 47.496094 24.046875 47.382812 24.046875 47.273438 24.054688 C 47.042969 24.074219 46.808594 24.125 46.609375 24.242188 C 46.523438 24.292969 46.457031 24.359375 46.394531 24.429688 C 46.773438 25.070312 47.144531 25.710938 47.515625 26.351562 C 47.820312 26.882812 48.125 27.414062 48.425781 27.945312 C 48.808594 27.152344 49.519531 26.507812 50.378906 26.292969 Z M 39.089844 16.144531 C 39.074219 16.148438 39.0625 16.144531 39.050781 16.140625 C 38.519531 16.117188 37.992188 16.027344 37.476562 15.867188 C 38.714844 16.863281 39.898438 17.808594 41.019531 18.6875 C 41.5625 18.683594 42.117188 18.589844 42.632812 18.421875 C 43.0625 18.285156 43.46875 18.070312 43.820312 17.792969 C 43.863281 17.753906 43.960938 17.667969 44.023438 17.613281 C 43.890625 16.59375 43.75 15.589844 43.605469 14.609375 C 43.175781 14.953125 42.707031 15.234375 42.214844 15.46875 C 41.257812 15.933594 40.195312 16.167969 39.136719 16.140625 C 39.121094 16.144531 39.105469 16.144531 39.089844 16.144531 Z M 54.609375 15.535156 C 53.773438 13.78125 53.214844 11.761719 53.46875 9.855469 C 53.230469 10.199219 52.988281 10.542969 52.746094 10.886719 C 53.0625 12.535156 53.679688 14.136719 54.609375 15.535156 Z M 55.105469 16.484375 C 55.097656 16.476562 55.09375 16.472656 55.089844 16.46875 C 55.089844 16.464844 55.085938 16.460938 55.085938 16.460938 C 54.363281 15.554688 53.773438 14.542969 53.339844 13.480469 C 53.023438 12.699219 52.785156 11.890625 52.617188 11.066406 C 52.285156 11.53125 51.953125 11.996094 51.617188 12.460938 C 52.429688 15.164062 53.992188 17.753906 56.398438 19.308594 C 56.550781 19.402344 56.707031 19.496094 56.863281 19.570312 C 57.402344 19.472656 57.941406 19.371094 58.476562 19.265625 C 57.164062 18.597656 56.023438 17.628906 55.105469 16.484375 Z M 37.441406 17.585938 C 37.433594 17.613281 37.429688 17.636719 37.425781 17.664062 C 40.3125 19.15625 42.496094 20.316406 43.65625 20.9375 C 42.808594 20.292969 41.910156 19.597656 40.964844 18.851562 C 40.933594 18.851562 40.910156 18.832031 40.898438 18.804688 C 39.753906 17.902344 38.542969 16.9375 37.28125 15.917969 C 37.492188 16.445312 37.535156 17.03125 37.441406 17.585938 Z M 57.097656 4.21875 C 56.515625 4.449219 55.921875 4.640625 55.320312 4.8125 C 51.046875 6.011719 46.296875 6.015625 42.226562 4.136719 C 42.738281 4.546875 43.746094 5.277344 45.222656 5.953125 C 47.242188 6.875 50.5625 7.871094 54.933594 7.410156 C 54.945312 7.40625 54.957031 7.398438 54.96875 7.394531 C 55.339844 6.847656 55.710938 6.300781 56.082031 5.753906 C 56.421875 5.242188 56.761719 4.730469 57.101562 4.21875 C 57.101562 4.21875 57.101562 4.21875 57.097656 4.21875 Z M 55.539062 27.542969 C 55.691406 25.046875 56.277344 22.496094 57.714844 20.414062 C 57.953125 20.066406 58.222656 19.742188 58.511719 19.429688 C 57.976562 19.53125 57.441406 19.632812 56.90625 19.730469 C 55.929688 21.136719 55.296875 22.765625 54.9375 24.433594 C 54.582031 26.109375 54.453125 27.839844 54.597656 29.546875 C 54.921875 29.816406 55.246094 30.085938 55.570312 30.355469 C 55.484375 29.417969 55.484375 28.480469 55.539062 27.542969 Z M 26.558594 6.886719 C 28.257812 7 29.972656 6.957031 31.65625 6.703125 C 35.007812 6.203125 38.359375 4.773438 40.605469 2.164062 C 40.667969 2.089844 40.726562 2.019531 40.785156 1.941406 C 37.363281 4.855469 32.625 5.757812 28.21875 5.40625 C 26.78125 5.296875 25.351562 5.082031 23.953125 4.714844 C 24.828125 5.445312 25.695312 6.167969 26.558594 6.886719 Z M 46.582031 3.070312 C 46.578125 3.066406 46.574219 3.0625 46.566406 3.0625 C 44.84375 2.816406 43.070312 2.347656 41.394531 1.535156 C 41.519531 2.101562 41.679688 2.859375 41.867188 3.78125 C 42.039062 3.859375 42.355469 4.011719 42.5 4.078125 C 42.636719 4.140625 43.035156 4.300781 43.179688 4.363281 C 43.402344 4.441406 43.652344 4.535156 43.875 4.613281 C 45.664062 5.210938 47.558594 5.484375 49.441406 5.480469 C 51.738281 5.472656 54.035156 5.085938 56.21875 4.367188 C 56.363281 4.316406 56.511719 4.265625 56.65625 4.210938 C 56.160156 4.234375 55.667969 4.238281 55.171875 4.242188 C 53.167969 4.234375 51.15625 4.066406 49.1875 3.695312 L 48.527344 3.566406 L 47.878906 3.410156 L 47.550781 3.335938 L 47.230469 3.246094 Z M 58.140625 27.691406 C 58.238281 26.136719 58.578125 24.5625 59.148438 23.011719 C 59.945312 20.84375 60.980469 19.324219 61.339844 18.835938 C 61.324219 18.839844 61.3125 18.839844 61.3125 18.839844 L 60.128906 19.105469 C 59.679688 19.199219 59.226562 19.289062 58.777344 19.378906 C 58.316406 19.875 57.894531 20.394531 57.542969 20.972656 C 57.128906 21.660156 56.785156 22.402344 56.523438 23.164062 C 55.878906 25.050781 55.644531 27.058594 55.667969 29.046875 C 55.675781 29.53125 55.699219 30.023438 55.75 30.503906 C 56.804688 31.386719 57.847656 32.269531 58.824219 33.113281 C 58.257812 31.363281 58.027344 29.539062 58.140625 27.691406 Z M 54.457031 39.097656 C 54.90625 39.984375 55.351562 40.875 55.789062 41.769531 C 55.847656 41.476562 55.933594 41.191406 56.03125 40.902344 C 56.65625 39.078125 57.988281 37.507812 59.703125 36.617188 C 60.246094 36.328125 60.824219 36.105469 61.414062 35.933594 C 60.859375 35.894531 60.296875 35.867188 59.746094 35.929688 C 57.507812 36.089844 55.957031 37.585938 54.457031 39.097656 Z M 55.855469 37.546875 C 57.59375 35.992188 59.359375 35.5625 61.589844 35.777344 C 60.808594 35.0625 59.917969 34.273438 58.957031 33.445312 C 57.050781 33.332031 55.539062 34.136719 54.609375 34.832031 C 53.722656 35.496094 53.175781 36.191406 53.042969 36.363281 C 53.496094 37.222656 53.941406 38.078125 54.378906 38.941406 C 54.859375 38.464844 55.339844 37.988281 55.855469 37.546875 Z M 33.472656 16.625 C 34.253906 17.183594 35.023438 17.757812 35.785156 18.339844 C 38.777344 20.644531 41.671875 23.082031 44.410156 25.679688 C 44.460938 25.441406 44.503906 25.203125 44.539062 24.960938 C 42.578125 23.066406 40.507812 21.277344 38.390625 19.554688 C 36.875 18.320312 35.328125 17.121094 33.75 15.972656 C 33.730469 16.078125 33.675781 16.207031 33.625 16.289062 C 33.558594 16.390625 33.480469 16.472656 33.402344 16.566406 C 33.425781 16.585938 33.449219 16.605469 33.472656 16.625 Z M 28.726562 13.265625 C 29.121094 12.128906 29.1875 10.878906 28.949219 9.703125 C 28.914062 9.550781 28.859375 9.300781 28.804688 9.152344 C 28.804688 9.152344 28.738281 8.941406 28.726562 8.90625 C 28.011719 8.3125 27.292969 7.714844 26.570312 7.113281 C 26.523438 7.273438 26.46875 7.433594 26.410156 7.589844 C 26.371094 7.691406 26.328125 7.792969 26.28125 7.894531 C 26.28125 7.894531 26.28125 7.898438 26.28125 7.898438 C 26.277344 7.90625 26.273438 7.917969 26.265625 7.929688 C 26.230469 8.015625 26.1875 8.097656 26.148438 8.183594 C 25.6875 9.253906 25.671875 10.492188 26.03125 11.597656 C 26.085938 11.757812 26.164062 11.921875 26.265625 12.058594 C 27.105469 12.464844 27.925781 12.867188 28.726562 13.265625 Z M 23.609375 10.769531 C 24.996094 9.949219 25.984375 8.53125 26.433594 6.996094 C 25.800781 6.472656 25.167969 5.941406 24.53125 5.410156 C 24.503906 5.570312 24.46875 5.765625 24.445312 5.890625 C 24.332031 6.367188 24.179688 6.855469 23.980469 7.304688 C 23.609375 8.160156 23.046875 8.945312 22.371094 9.589844 C 22.226562 9.722656 22.078125 9.84375 21.917969 9.960938 C 22.488281 10.234375 23.050781 10.5 23.609375 10.769531 Z M 21.808594 9.910156 C 21.976562 9.785156 22.136719 9.644531 22.289062 9.503906 C 22.949219 8.863281 23.488281 8.085938 23.859375 7.25 C 24.046875 6.835938 24.195312 6.386719 24.304688 5.945312 C 24.335938 5.847656 24.359375 5.707031 24.378906 5.605469 C 24.378906 5.605469 24.417969 5.410156 24.433594 5.328125 C 24.164062 5.105469 23.894531 4.878906 23.628906 4.65625 C 23.558594 4.734375 23.457031 4.847656 23.417969 4.890625 C 22.902344 5.4375 22.296875 5.894531 21.640625 6.257812 C 20.945312 7.253906 19.917969 7.96875 18.84375 8.515625 C 19.84375 8.980469 20.832031 9.445312 21.808594 9.910156 Z M 18.660156 8.429688 C 18.796875 8.386719 18.933594 8.328125 19.0625 8.265625 C 19.484375 8.0625 19.875 7.789062 20.25 7.511719 C 20.394531 7.398438 20.5625 7.253906 20.695312 7.132812 C 20.886719 6.949219 21.089844 6.746094 21.25 6.53125 C 21.28125 6.496094 21.304688 6.460938 21.332031 6.421875 C 21.3125 6.429688 21.296875 6.441406 21.277344 6.449219 C 19.960938 7.085938 18.496094 7.371094 17.039062 7.402344 C 16.832031 7.40625 16.625 7.402344 16.417969 7.394531 C 17.171875 7.738281 17.917969 8.085938 18.660156 8.429688 Z M 0.0351562 0.558594 C 0.0507812 0.515625 0.0976562 0.496094 0.140625 0.511719 C 2.511719 1.410156 4.957031 2.394531 7.425781 3.433594 C 7.460938 3.441406 9.585938 3.824219 12.246094 3.824219 C 14.667969 3.824219 18.035156 3.496094 20.398438 1.949219 C 19.851562 1.492188 19.304688 1.03125 18.757812 0.574219 C 18.722656 0.542969 18.71875 0.492188 18.75 0.457031 C 18.777344 0.421875 18.828125 0.417969 18.863281 0.445312 C 19.433594 0.925781 20.007812 1.40625 20.578125 1.886719 C 25.828125 3.980469 31.101562 3.453125 34.605469 2.640625 C 38.40625 1.757812 40.996094 0.359375 41.023438 0.34375 C 41.046875 0.332031 41.074219 0.332031 41.097656 0.339844 C 41.121094 0.351562 41.136719 0.371094 41.144531 0.398438 C 41.148438 0.414062 41.222656 0.746094 41.351562 1.332031 C 45.28125 3.277344 49.78125 3.296875 52.867188 2.972656 C 56.035156 2.636719 58.402344 1.878906 58.683594 1.785156 C 59 1.289062 59.316406 0.792969 59.628906 0.292969 C 59.652344 0.253906 59.703125 0.246094 59.742188 0.269531 C 59.769531 0.285156 59.78125 0.3125 59.78125 0.34375 C 59.683594 1.890625 59.683594 3.445312 59.746094 4.996094 C 59.972656 9.273438 60.621094 14.84375 63.6875 18.0625 C 63.699219 18.074219 63.710938 18.085938 63.714844 18.101562 C 63.714844 18.109375 63.714844 18.117188 63.714844 18.125 C 63.714844 18.125 63.714844 18.128906 63.714844 18.128906 C 63.714844 18.136719 63.714844 18.144531 63.710938 18.152344 C 63.710938 18.152344 63.710938 18.15625 63.710938 18.160156 C 63.707031 18.164062 63.703125 18.167969 63.703125 18.171875 C 61.421875 22.121094 60.007812 26.882812 60.597656 31.457031 C 60.800781 32.984375 61.253906 34.480469 61.953125 35.851562 C 61.953125 35.855469 61.953125 35.859375 61.953125 35.863281 C 61.957031 35.867188 61.957031 35.871094 61.960938 35.878906 C 61.960938 35.882812 61.960938 35.886719 61.960938 35.890625 C 61.960938 35.890625 61.960938 35.894531 61.960938 35.894531 C 62.449219 36.347656 62.890625 36.765625 63.273438 37.144531 C 63.289062 37.160156 63.300781 37.1875 63.296875 37.210938 C 63.292969 37.234375 63.28125 37.257812 63.257812 37.273438 C 63.242188 37.28125 61.753906 38.191406 60.390625 39.816406 C 59.132812 41.316406 57.726562 43.746094 58.15625 46.824219 C 58.15625 46.824219 58.15625 46.824219 58.15625 46.828125 C 58.871094 48.429688 59.558594 50.046875 60.210938 51.675781 C 61.25 54.316406 62.199219 57 62.867188 59.757812 C 63.089844 60.679688 63.273438 61.609375 63.402344 62.546875 C 63.410156 62.59375 63.378906 62.632812 63.332031 62.640625 C 63.289062 62.648438 63.246094 62.617188 63.242188 62.570312 C 62.699219 58.832031 61.425781 55.242188 60.058594 51.738281 C 59.449219 50.230469 58.8125 48.738281 58.152344 47.253906 L 58.105469 59.371094 C 58.105469 59.390625 58.089844 59.402344 58.074219 59.402344 C 58.054688 59.402344 58.039062 59.390625 58.039062 59.371094 L 57.992188 46.890625 C 57.277344 45.285156 56.535156 43.691406 55.769531 42.109375 C 55.753906 42.09375 55.742188 42.074219 55.742188 42.050781 C 55.3125 41.164062 54.875 40.285156 54.429688 39.40625 C 54.398438 42.078125 53.894531 44.71875 53.277344 47.3125 C 53.058594 48.210938 52.824219 49.105469 52.558594 49.988281 C 52.550781 50.015625 52.523438 50.027344 52.5 50.019531 C 52.476562 50.011719 52.460938 49.988281 52.46875 49.960938 C 52.984375 48.191406 53.402344 46.390625 53.738281 44.578125 C 54.058594 42.773438 54.289062 40.941406 54.269531 39.109375 C 51.417969 34.605469 47.953125 30.582031 44.21875 26.800781 C 44.078125 27.199219 43.921875 27.589844 43.738281 27.96875 C 43.597656 28.253906 43.449219 28.53125 43.273438 28.796875 C 43.257812 28.820312 43.230469 28.824219 43.207031 28.808594 C 43.1875 28.796875 43.179688 28.765625 43.195312 28.742188 C 43.363281 28.484375 43.511719 28.203125 43.644531 27.921875 C 43.832031 27.53125 43.988281 27.125 44.125 26.710938 C 40.714844 23.269531 37.085938 20.035156 33.484375 16.832031 C 33.417969 16.785156 33.351562 16.738281 33.28125 16.6875 C 33.257812 16.695312 33.230469 16.691406 33.207031 16.675781 C 33.171875 16.648438 33.164062 16.601562 33.183594 16.5625 C 32.421875 15.886719 31.660156 15.210938 30.902344 14.53125 C 29.414062 13.785156 27.839844 13.007812 26.203125 12.210938 C 26.1875 12.207031 26.167969 12.199219 26.15625 12.183594 C 23.761719 11.015625 21.234375 9.808594 18.636719 8.601562 C 18.621094 8.597656 18.605469 8.589844 18.59375 8.578125 C 14.96875 6.894531 11.21875 5.210938 7.511719 3.648438 L 7.519531 3.703125 C 7.5625 4.042969 7.566406 4.386719 7.570312 4.726562 C 7.570312 5.398438 7.539062 6.085938 7.496094 6.757812 C 7.425781 7.839844 7.332031 8.917969 7.210938 9.992188 C 7.210938 10.019531 7.1875 10.039062 7.160156 10.035156 C 7.136719 10.03125 7.117188 10.007812 7.121094 9.984375 C 7.285156 8.238281 7.429688 6.484375 7.417969 4.726562 C 7.410156 4.394531 7.402344 4.054688 7.355469 3.726562 C 7.355469 3.726562 7.34375 3.632812 7.335938 3.574219 C 4.878906 2.539062 2.445312 1.558594 0.0820312 0.664062 C 0.0390625 0.648438 0.0195312 0.601562 0.0351562 0.558594 " fill-opacity="1" fill-rule="nonzero"/></g></svg>