<svg xmlns="http://www.w3.org/2000/svg" xmlns:xlink="http://www.w3.org/1999/xlink" width="86" zoomAndPan="magnify" viewBox="0 0 64.5 62.999997" height="84" preserveAspectRatio="xMidYMid meet" version="1.0"><defs><clipPath id="ae4a027dfc"><path d="M 0 0.242188 L 64 0.242188 L 64 62.757812 L 0 62.757812 Z M 0 0.242188 " clip-rule="nonzero"/></clipPath></defs><g clip-path="url(#ae4a027dfc)"><path fill="#ffffff" d="M 30.429688 16.488281 C 30.214844 16.398438 30.085938 16.160156 30.0625 15.933594 C 30.828125 15.542969 31.621094 15.144531 32.445312 14.730469 C 31.773438 15.316406 31.101562 15.902344 30.429688 16.488281 Z M 19.582031 26.585938 C 19.5 26.320312 19.425781 26.054688 19.363281 25.78125 C 22.410156 22.882812 25.65625 20.179688 29.058594 17.699219 C 25.8125 20.570312 22.621094 23.5 19.582031 26.585938 Z M 14.445312 32.152344 C 12.910156 33.964844 11.449219 35.84375 10.125 37.816406 C 10.363281 37.355469 10.601562 36.890625 10.84375 36.429688 C 10.847656 36.425781 10.847656 36.429688 10.847656 36.425781 C 10.871094 36.410156 10.882812 36.382812 10.882812 36.355469 C 11.441406 35.292969 12.011719 34.234375 12.585938 33.175781 C 12.59375 33.171875 12.601562 33.164062 12.605469 33.152344 C 14.160156 31.148438 15.871094 29.242188 17.65625 27.441406 C 18.183594 26.914062 18.71875 26.394531 19.257812 25.878906 C 19.324219 26.148438 19.402344 26.414062 19.492188 26.679688 C 17.75 28.449219 16.0625 30.265625 14.445312 32.152344 Z M 3.480469 39.707031 C 2.289062 38.289062 1.007812 37.410156 0.664062 37.1875 C 1.035156 36.824219 1.457031 36.421875 1.925781 35.988281 C 4.175781 36.5 6.082031 37.832031 7.160156 39.894531 C 7.425781 40.398438 7.648438 40.929688 7.769531 41.488281 C 7.804688 41.660156 7.835938 41.835938 7.839844 42.011719 C 7.140625 43.449219 6.464844 44.894531 5.808594 46.351562 C 6.039062 43.445312 4.691406 41.152344 3.480469 39.707031 Z M 0.753906 19.101562 C 0.605469 18.820312 0.453125 18.542969 0.289062 18.265625 C 0.5625 18.347656 0.886719 18.441406 1.109375 18.507812 C 1.410156 18.589844 1.832031 18.691406 2.160156 18.773438 C 2.25 18.890625 3.515625 20.535156 4.449219 23.074219 C 5.335938 25.484375 6.09375 29.214844 4.683594 33.320312 C 3.742188 34.132812 2.867188 34.90625 2.09375 35.613281 C 4.601562 30.355469 3.324219 24.101562 0.753906 19.101562 Z M 4.207031 2.667969 C 4.203125 1.992188 4.1875 1.320312 4.148438 0.644531 C 4.410156 1.054688 4.671875 1.464844 4.933594 1.875 C 4.9375 1.894531 4.945312 1.910156 4.960938 1.917969 C 5.464844 2.703125 5.96875 3.484375 6.480469 4.261719 C 6.386719 5.542969 6.207031 6.824219 5.960938 8.085938 C 5.246094 11.558594 3.875 16.21875 0.441406 17.890625 C 3.703125 14.171875 4.191406 7.398438 4.207031 2.667969 Z M 10.859375 3.132812 C 11.746094 3.226562 12.75 3.292969 13.820312 3.292969 C 14.582031 3.292969 15.382812 3.257812 16.203125 3.179688 C 16.1875 3.183594 16.171875 3.1875 16.15625 3.191406 C 15.957031 3.242188 15.394531 3.378906 15.1875 3.429688 L 14.535156 3.5625 C 11.925781 4.0625 9.234375 4.21875 6.585938 4.019531 C 6.582031 4.019531 6.578125 4.019531 6.574219 4.019531 C 6.570312 4.019531 6.570312 4.019531 6.566406 4.019531 C 6.550781 4.023438 6.539062 4.027344 6.527344 4.035156 C 6.082031 3.359375 5.640625 2.683594 5.207031 2.003906 C 5.882812 2.214844 8.058594 2.839844 10.859375 3.132812 Z M 22.742188 0.539062 C 23.242188 0.796875 25.6875 2.003906 29.101562 2.796875 C 31.347656 3.320312 33.566406 3.5625 35.699219 3.519531 C 38.191406 3.472656 40.574219 3.03125 42.78125 2.210938 C 42.292969 2.621094 41.800781 3.03125 41.3125 3.441406 C 41.308594 3.445312 41.304688 3.449219 41.296875 3.453125 C 40.894531 3.792969 40.492188 4.128906 40.089844 4.464844 C 39.726562 4.578125 39.351562 4.667969 38.980469 4.753906 C 33.523438 5.960938 27.148438 5.539062 22.84375 1.628906 L 22.734375 1.527344 C 22.734375 1.527344 22.605469 1.40625 22.558594 1.363281 C 22.644531 0.960938 22.707031 0.679688 22.742188 0.539062 Z M 43.21875 2.058594 C 45.617188 3.652344 49.042969 3.988281 51.503906 3.988281 C 52.855469 3.988281 54.070312 3.886719 54.945312 3.789062 C 54.472656 3.902344 54 4.007812 53.523438 4.105469 C 50.105469 4.757812 44.519531 5.550781 41.492188 3.507812 C 42.066406 3.023438 42.640625 2.542969 43.21875 2.058594 Z M 47.75 7.203125 C 47.410156 7.234375 47.058594 7.246094 46.710938 7.238281 C 44.472656 7.195312 42.132812 6.511719 40.542969 4.871094 C 40.496094 4.828125 40.40625 4.730469 40.363281 4.683594 C 40.363281 4.683594 40.296875 4.605469 40.246094 4.550781 C 40.617188 4.238281 40.988281 3.925781 41.363281 3.613281 C 44.828125 5.796875 51.195312 4.816406 55.382812 3.832031 C 52.835938 4.917969 50.273438 6.050781 47.75 7.203125 Z M 37.816406 11.628906 C 38.109375 10.730469 38.167969 9.753906 37.960938 8.832031 C 38.46875 9.644531 39.144531 10.351562 39.960938 10.855469 C 39.195312 11.222656 38.441406 11.589844 37.699219 11.949219 C 37.742188 11.84375 37.78125 11.738281 37.816406 11.628906 Z M 32.9375 14.003906 C 32.753906 13.539062 32.644531 13.039062 32.617188 12.542969 C 32.582031 11.941406 32.640625 11.320312 32.808594 10.738281 C 33.46875 10.195312 34.132812 9.644531 34.800781 9.085938 C 34.773438 9.191406 34.742188 9.300781 34.726562 9.394531 C 34.511719 10.332031 34.492188 11.320312 34.632812 12.273438 C 34.6875 12.632812 34.761719 12.988281 34.875 13.339844 C 34.253906 13.644531 33.644531 13.949219 33.046875 14.246094 C 33.007812 14.164062 32.960938 14.058594 32.9375 14.003906 Z M 30.035156 15.761719 C 29.910156 15.386719 29.808594 15 29.738281 14.609375 C 29.671875 14.203125 29.617188 13.789062 29.59375 13.378906 C 30.574219 12.578125 31.574219 11.757812 32.59375 10.917969 C 32.539062 11.144531 32.5 11.375 32.476562 11.601562 C 32.386719 12.46875 32.480469 13.371094 32.832031 14.171875 C 32.832031 14.171875 32.871094 14.257812 32.898438 14.320312 C 31.90625 14.816406 30.949219 15.300781 30.035156 15.761719 Z M 13.039062 32.34375 C 13.050781 32.335938 13.0625 32.324219 13.066406 32.308594 C 14.03125 30.589844 15.304688 29.058594 16.625 27.59375 C 17.421875 26.730469 18.246094 25.894531 19.089844 25.074219 C 19.128906 25.3125 19.175781 25.546875 19.234375 25.78125 C 18.496094 26.480469 17.765625 27.191406 17.050781 27.917969 C 15.644531 29.351562 14.292969 30.839844 13.015625 32.390625 C 13.023438 32.375 13.03125 32.359375 13.039062 32.34375 Z M 10.789062 36.203125 C 10.597656 35.957031 10.070312 35.328125 9.242188 34.703125 C 8.320312 34.015625 6.847656 33.222656 4.988281 33.273438 C 5.976562 32.417969 7.03125 31.527344 8.105469 30.628906 C 8.636719 30.691406 9.164062 30.808594 9.667969 30.988281 C 10.773438 31.394531 11.804688 32.117188 12.441406 33.117188 C 11.882812 34.144531 11.332031 35.171875 10.789062 36.203125 Z M 8.640625 7.480469 C 8.625 7.734375 8.632812 8.054688 8.609375 8.296875 C 8.601562 8.378906 8.570312 8.75 8.5625 8.820312 C 8.53125 9.054688 8.5 9.320312 8.460938 9.550781 C 8.207031 11.074219 7.640625 12.546875 6.859375 13.875 C 5.707031 15.777344 4.140625 17.480469 2.21875 18.621094 C 1.867188 18.535156 1.476562 18.429688 1.152344 18.351562 C 0.90625 18.28125 0.605469 18.1875 0.339844 18.109375 C 2.761719 16.964844 4.140625 14.425781 5.027344 12.007812 C 5.882812 9.578125 6.382812 7.039062 6.625 4.476562 C 7.289062 5.484375 7.960938 6.484375 8.640625 7.480469 Z M 34.921875 8.773438 C 30.738281 8.824219 25.335938 7.921875 22.542969 4.523438 C 22.363281 4.300781 22.195312 4.066406 22.039062 3.824219 C 22.226562 2.914062 22.382812 2.164062 22.507812 1.597656 C 22.664062 1.835938 22.835938 2.054688 23.015625 2.269531 C 25.40625 5.046875 29.007812 6.492188 32.582031 6.9375 C 34.039062 7.113281 35.515625 7.152344 36.976562 7.066406 C 36.289062 7.640625 35.601562 8.210938 34.921875 8.773438 Z M 32.707031 10.609375 C 30.179688 10.527344 27.632812 10.082031 25.269531 9.164062 C 23.871094 8.605469 22.535156 7.839844 21.460938 6.777344 C 21.652344 5.769531 21.832031 4.851562 21.996094 4.046875 C 22.128906 4.246094 22.265625 4.441406 22.414062 4.628906 C 25.199219 8.011719 30.511719 8.957031 34.722656 8.941406 C 34.042969 9.503906 33.375 10.058594 32.707031 10.609375 Z M 30.855469 12.132812 C 27.777344 12.523438 23.960938 12.132812 21.53125 10.039062 C 21.332031 9.871094 21.148438 9.679688 20.96875 9.488281 C 21.027344 9.152344 21.085938 8.820312 21.144531 8.496094 C 21.769531 8.816406 25.449219 10.625 29.359375 10.625 C 29.6875 10.625 30.019531 10.609375 30.347656 10.582031 C 31.078125 10.671875 31.804688 10.730469 32.519531 10.761719 C 31.960938 11.226562 31.40625 11.683594 30.855469 12.132812 Z M 29.476562 13.261719 C 26.484375 13.515625 23.125 13.050781 20.679688 11.191406 C 20.765625 10.675781 20.851562 10.171875 20.933594 9.683594 C 21.222656 9.960938 21.523438 10.222656 21.84375 10.453125 C 24.066406 12.027344 26.886719 12.445312 29.554688 12.386719 C 29.914062 12.375 30.269531 12.355469 30.625 12.324219 C 30.238281 12.640625 29.855469 12.953125 29.476562 13.261719 Z M 29.949219 15.804688 C 28.707031 16.4375 27.542969 17.03125 26.476562 17.585938 C 26.402344 17.191406 26.40625 16.785156 26.488281 16.394531 C 26.511719 16.3125 26.527344 16.222656 26.558594 16.144531 C 26.605469 15.984375 26.679688 15.832031 26.757812 15.683594 C 27.628906 14.980469 28.527344 14.25 29.441406 13.503906 C 29.488281 14.101562 29.589844 14.691406 29.765625 15.261719 C 29.820312 15.445312 29.890625 15.621094 29.964844 15.796875 C 29.957031 15.800781 29.953125 15.804688 29.949219 15.804688 Z M 19.121094 24.203125 C 19.300781 24.03125 19.476562 23.859375 19.644531 23.703125 C 21.71875 21.742188 23.878906 19.867188 26.097656 18.066406 L 26.28125 17.917969 L 26.375 17.84375 C 26.394531 17.824219 26.414062 17.808594 26.433594 17.789062 C 27.304688 17.339844 28.242188 16.859375 29.230469 16.355469 C 26.328125 18.578125 23.507812 20.914062 20.800781 23.371094 C 20.261719 23.867188 19.726562 24.371094 19.195312 24.878906 C 19.164062 24.652344 19.140625 24.429688 19.121094 24.203125 Z M 15.402344 28.140625 C 16.207031 27.179688 17.0625 26.261719 17.941406 25.367188 C 18.265625 25.035156 18.632812 24.675781 18.996094 24.328125 C 19.015625 24.546875 19.042969 24.769531 19.078125 24.988281 C 18.21875 25.816406 17.375 26.664062 16.5625 27.539062 C 15.671875 28.511719 14.800781 29.511719 14.019531 30.578125 C 14.476562 29.761719 14.9375 28.949219 15.402344 28.140625 Z M 9.25 29.675781 C 10.007812 29.839844 10.738281 30.132812 11.375 30.570312 C 12.003906 31.011719 12.566406 31.585938 12.898438 32.28125 C 12.773438 32.503906 12.652344 32.730469 12.53125 32.953125 C 12.058594 32.238281 11.386719 31.671875 10.640625 31.253906 C 9.914062 30.84375 9.101562 30.597656 8.273438 30.488281 C 8.601562 30.214844 8.925781 29.945312 9.25 29.675781 Z M 8.761719 8.308594 C 8.777344 8.132812 8.785156 7.914062 8.792969 7.710938 C 9.214844 8.328125 9.640625 8.941406 10.066406 9.550781 C 10.46875 11.464844 9.949219 13.449219 9.164062 15.203125 C 8.976562 15.597656 8.769531 15.996094 8.53125 16.363281 C 8.40625 16.519531 8.28125 16.667969 8.148438 16.816406 C 7.550781 17.480469 6.878906 18.074219 6.136719 18.574219 C 5.777344 18.816406 5.402344 19.039062 5.011719 19.214844 C 4.164062 19.046875 3.316406 18.871094 2.472656 18.679688 C 2.460938 18.679688 2.449219 18.675781 2.441406 18.675781 C 2.621094 18.558594 2.796875 18.4375 2.96875 18.3125 C 5.480469 16.464844 7.464844 13.835938 8.320312 10.824219 C 8.5 10.171875 8.632812 9.507812 8.714844 8.839844 C 8.722656 8.722656 8.753906 8.421875 8.761719 8.308594 Z M 21.300781 6.753906 C 20.386719 7.328125 19.363281 7.730469 18.332031 8.042969 C 15.324219 8.945312 11.949219 8.929688 9.09375 7.546875 C 9.753906 7.609375 10.390625 7.636719 11 7.636719 C 14.324219 7.636719 16.894531 6.816406 18.574219 6.050781 C 20.339844 5.242188 21.445312 4.355469 21.832031 4.019531 C 21.671875 4.824219 21.488281 5.742188 21.300781 6.753906 Z M 21.425781 6.972656 C 21.761719 7.292969 22.117188 7.589844 22.492188 7.863281 C 24.597656 9.328125 27.191406 10.128906 29.785156 10.507812 C 25.679688 10.652344 21.707031 8.664062 21.167969 8.382812 C 21.253906 7.894531 21.339844 7.425781 21.425781 6.972656 Z M 20.808594 9.460938 C 20.757812 9.484375 20.5625 9.589844 20.5625 9.589844 C 20.492188 9.625 20.355469 9.695312 20.285156 9.730469 C 20.140625 9.800781 19.859375 9.925781 19.714844 9.984375 C 17.402344 10.957031 14.828125 11.203125 12.34375 10.964844 C 11.941406 10.921875 11.535156 10.867188 11.144531 10.789062 C 10.410156 9.757812 9.6875 8.714844 8.96875 7.671875 C 9.375 7.867188 9.785156 8.039062 10.210938 8.1875 C 12.835938 9.097656 15.734375 8.984375 18.378906 8.203125 C 19.378906 7.898438 20.363281 7.515625 21.257812 6.96875 C 21.113281 7.75 20.960938 8.582031 20.808594 9.460938 Z M 20.515625 11.171875 C 20.222656 11.34375 19.90625 11.492188 19.589844 11.632812 C 17.945312 12.328125 16.148438 12.671875 14.363281 12.621094 C 13.660156 12.597656 12.960938 12.515625 12.273438 12.371094 C 11.941406 11.910156 11.609375 11.445312 11.28125 10.984375 C 11.628906 11.046875 11.976562 11.089844 12.328125 11.128906 C 14.476562 11.335938 16.675781 11.175781 18.738281 10.523438 C 18.871094 10.476562 19.066406 10.414062 19.1875 10.371094 L 19.484375 10.257812 L 19.632812 10.199219 C 19.847656 10.109375 20.148438 9.980469 20.355469 9.875 C 20.484375 9.816406 20.636719 9.738281 20.773438 9.664062 C 20.6875 10.15625 20.601562 10.660156 20.515625 11.171875 Z M 26.652344 15.558594 C 26.117188 15.765625 25.550781 15.90625 24.980469 15.960938 C 24.859375 15.972656 24.742188 15.976562 24.621094 15.980469 C 23.296875 15.957031 22.070312 15.191406 21.160156 14.273438 C 20.859375 13.96875 20.578125 13.628906 20.34375 13.269531 C 20.445312 12.625 20.546875 11.992188 20.648438 11.371094 C 22.835938 13.007812 25.660156 13.519531 28.339844 13.492188 C 28.644531 13.484375 28.945312 13.472656 29.25 13.449219 C 28.363281 14.171875 27.496094 14.875 26.652344 15.558594 Z M 19.089844 23.390625 C 19.09375 22.78125 19.15625 22.167969 19.265625 21.570312 C 19.574219 21.402344 21.984375 20.097656 25.730469 18.152344 C 23.605469 19.890625 21.527344 21.699219 19.53125 23.582031 C 19.386719 23.71875 19.246094 23.855469 19.105469 23.992188 C 19.09375 23.789062 19.089844 23.589844 19.089844 23.390625 Z M 19.046875 21.921875 C 18.976562 22.410156 18.941406 22.898438 18.941406 23.390625 C 18.945312 23.632812 18.957031 23.875 18.976562 24.113281 C 17.890625 25.164062 16.828125 26.25 15.835938 27.382812 C 16.890625 25.550781 17.960938 23.734375 19.046875 21.921875 Z M 13.746094 30.75 C 12.269531 29.324219 10.179688 29.414062 9.464844 29.496094 C 10.75 28.433594 12.023438 27.390625 13.207031 26.425781 C 13.421875 26.46875 13.632812 26.539062 13.832031 26.636719 C 14.453125 26.941406 14.945312 27.492188 15.222656 28.121094 C 14.726562 28.996094 14.234375 29.871094 13.746094 30.75 Z M 12.761719 31.714844 C 12.414062 31.210938 11.96875 30.78125 11.46875 30.4375 C 10.902344 30.046875 10.265625 29.769531 9.601562 29.589844 C 10.394531 29.519531 12.320312 29.507812 13.691406 30.847656 C 13.457031 31.265625 13.226562 31.683594 12.996094 32.105469 C 12.925781 31.964844 12.847656 31.839844 12.761719 31.714844 Z M 9.300781 26.546875 C 9.410156 26.371094 9.753906 25.785156 9.976562 24.839844 C 10.21875 23.832031 10.359375 22.214844 9.683594 20.21875 C 9.859375 20.246094 10.03125 20.273438 10.203125 20.300781 C 10.429688 20.464844 10.644531 20.660156 10.84375 20.855469 C 11.878906 21.878906 12.636719 23.1875 12.953125 24.609375 C 13.011719 24.894531 13.058594 25.179688 13.082031 25.46875 C 13.109375 25.746094 13.109375 26.023438 13.101562 26.300781 C 11.90625 27.273438 10.617188 28.328125 9.324219 29.402344 C 9.390625 28.453125 9.382812 27.496094 9.300781 26.546875 Z M 8.761719 20.066406 C 8.773438 20.070312 8.785156 20.070312 8.796875 20.070312 C 9.050781 20.113281 9.308594 20.15625 9.5625 20.199219 C 10.25 22.195312 10.113281 23.808594 9.871094 24.808594 C 9.691406 25.570312 9.429688 26.105469 9.28125 26.363281 C 9.128906 24.835938 8.777344 23.332031 8.203125 21.90625 C 7.894531 21.160156 7.515625 20.441406 7.0625 19.769531 C 7.628906 19.871094 8.195312 19.96875 8.761719 20.066406 Z M 20.179688 13.257812 C 20.175781 13.269531 20.175781 13.277344 20.175781 13.285156 C 20.121094 13.65625 20.0625 14.03125 20.007812 14.410156 C 19.523438 14.75 18.976562 14.992188 18.414062 15.160156 C 17.601562 15.398438 16.75 15.503906 15.90625 15.511719 C 15.4375 15.511719 14.964844 15.484375 14.503906 15.40625 C 13.800781 14.464844 13.101562 13.519531 12.414062 12.566406 C 13.054688 12.6875 13.707031 12.761719 14.359375 12.785156 C 15.804688 12.828125 17.261719 12.613281 18.636719 12.164062 C 19.273438 11.953125 19.894531 11.699219 20.480469 11.375 C 20.382812 11.988281 20.28125 12.617188 20.179688 13.257812 Z M 21.601562 15.320312 C 21.097656 15.078125 20.601562 14.78125 20.167969 14.425781 C 20.214844 14.113281 20.261719 13.804688 20.308594 13.5 C 20.535156 13.8125 20.789062 14.101562 21.0625 14.375 C 21.738281 15.046875 22.554688 15.597656 23.464844 15.902344 C 22.820312 15.800781 22.191406 15.601562 21.601562 15.320312 Z M 19.703125 17.804688 C 20.328125 18.320312 21.109375 18.609375 21.90625 18.734375 C 22.125 18.769531 22.34375 18.789062 22.558594 18.820312 C 21.394531 19.734375 20.300781 20.578125 19.292969 21.339844 C 19.414062 20.152344 19.554688 18.96875 19.703125 17.804688 Z M 17.441406 24.28125 C 17.199219 24.019531 16.832031 23.917969 16.488281 23.890625 C 16.441406 23.886719 16.398438 23.886719 16.351562 23.886719 C 17.519531 22.949219 18.417969 22.234375 18.886719 21.863281 C 18.398438 22.664062 17.917969 23.472656 17.441406 24.28125 Z M 11.804688 20.554688 C 12.386719 21.378906 12.832031 22.316406 13.09375 23.292969 C 13.304688 24.078125 13.371094 24.910156 13.242188 25.714844 C 13.089844 23.863281 12.234375 22.09375 10.941406 20.761719 C 10.804688 20.621094 10.664062 20.484375 10.515625 20.351562 C 10.945312 20.421875 11.375 20.488281 11.804688 20.554688 Z M 19.5625 17.59375 C 18.871094 18.035156 18.023438 18.257812 17.207031 18.148438 C 16.9375 18.113281 16.679688 18.035156 16.429688 17.933594 C 16.355469 17.839844 16.28125 17.742188 16.207031 17.652344 C 15.679688 16.964844 15.15625 16.273438 14.632812 15.578125 C 16.03125 15.691406 17.457031 15.597656 18.796875 15.160156 C 19.207031 15.023438 19.605469 14.84375 19.976562 14.617188 C 19.832031 15.589844 19.695312 16.585938 19.5625 17.59375 Z M 19.449219 18.496094 C 18.71875 19.277344 17.492188 18.996094 17.199219 18.914062 C 17.003906 18.667969 16.8125 18.421875 16.625 18.179688 C 17.359375 18.421875 18.179688 18.378906 18.902344 18.105469 C 19.125 18.023438 19.335938 17.925781 19.535156 17.804688 C 19.507812 18.035156 19.476562 18.265625 19.449219 18.496094 Z M 18.230469 20.203125 C 17.925781 19.832031 17.617188 19.441406 17.308594 19.054688 C 17.742188 19.152344 18.742188 19.289062 19.429688 18.671875 C 19.320312 19.546875 19.222656 20.425781 19.132812 21.3125 C 18.9375 21.074219 18.230469 20.203125 18.230469 20.203125 Z M 16.171875 23.820312 C 16.09375 23.292969 15.949219 22.785156 15.742188 22.296875 C 15.550781 21.835938 15.285156 21.398438 14.953125 21.019531 C 16.296875 21.210938 17.640625 21.398438 18.988281 21.574219 C 18.617188 21.867188 17.585938 22.6875 16.171875 23.820312 Z M 15.011719 21.359375 C 15.574219 22.101562 15.898438 23.019531 16.023438 23.9375 C 15.675781 24.21875 15.308594 24.515625 14.921875 24.824219 C 15.171875 24.253906 15.621094 22.867188 15.011719 21.359375 Z M 14.378906 20.941406 C 14.484375 20.957031 14.589844 20.96875 14.695312 20.984375 C 14.710938 21 14.726562 21.015625 14.742188 21.035156 C 15.699219 22.882812 14.910156 24.625 14.726562 24.984375 C 14.28125 25.34375 13.8125 25.722656 13.328125 26.117188 C 13.6875 24.660156 13.34375 23.117188 12.710938 21.785156 C 12.511719 21.367188 12.289062 20.96875 12.027344 20.589844 C 12.808594 20.707031 13.59375 20.824219 14.378906 20.941406 Z M 16.222656 18.824219 C 16.023438 19.355469 15.667969 19.820312 15.292969 20.242188 C 15.109375 20.445312 14.914062 20.640625 14.714844 20.820312 C 13.828125 20.695312 12.941406 20.566406 12.058594 20.429688 C 13.5 19.328125 14.691406 17.621094 14.5625 15.757812 C 15.132812 16.515625 15.710938 17.269531 16.292969 18.019531 C 16.359375 18.28125 16.3125 18.5625 16.222656 18.824219 Z M 14.953125 20.808594 C 15.101562 20.65625 15.25 20.496094 15.394531 20.332031 C 15.863281 19.769531 16.453125 19.015625 16.46875 18.242188 C 16.660156 18.484375 16.851562 18.730469 17.042969 18.972656 C 16.917969 19.234375 16.273438 20.484375 14.953125 20.808594 Z M 18.101562 20.304688 C 18.101562 20.304688 18.722656 21.066406 18.996094 21.40625 C 17.703125 21.234375 16.410156 21.058594 15.117188 20.878906 C 16.324219 20.511719 16.949219 19.410156 17.117188 19.070312 C 17.441406 19.484375 17.769531 19.894531 18.101562 20.304688 Z M 12.25 12.625 C 12.65625 13.1875 13.0625 13.746094 13.476562 14.304688 C 13.449219 14.503906 13.402344 14.710938 13.347656 14.910156 C 12.96875 16.328125 11.988281 17.609375 10.542969 18 C 11.066406 17.039062 11.367188 15.960938 11.363281 14.863281 C 11.71875 14.144531 12.011719 13.394531 12.25 12.625 Z M 7.140625 19.617188 C 8.421875 18.898438 9.46875 17.8125 10.320312 16.628906 C 10.644531 16.167969 10.9375 15.6875 11.199219 15.191406 C 11.167969 16.191406 10.871094 17.171875 10.378906 18.042969 C 10.371094 18.042969 10.363281 18.046875 10.355469 18.046875 C 10.289062 18.0625 10.28125 18.128906 10.304688 18.171875 C 10.027344 18.640625 9.6875 19.074219 9.300781 19.457031 C 9.136719 19.617188 8.957031 19.773438 8.769531 19.90625 C 8.226562 19.8125 7.683594 19.714844 7.140625 19.617188 Z M 10.222656 20.144531 C 9.808594 20.078125 9.394531 20.007812 8.980469 19.941406 C 9.125 19.816406 9.265625 19.6875 9.398438 19.546875 C 9.792969 19.140625 10.140625 18.6875 10.429688 18.195312 C 12.007812 17.753906 13.035156 16.484375 13.492188 14.949219 C 13.535156 14.796875 13.574219 14.640625 13.605469 14.480469 C 13.863281 14.820312 14.117188 15.164062 14.375 15.507812 C 14.582031 16.96875 13.886719 18.398438 12.898438 19.445312 C 12.574219 19.796875 12.214844 20.121094 11.828125 20.398438 C 11.308594 20.316406 10.789062 20.234375 10.273438 20.152344 C 10.257812 20.144531 10.242188 20.140625 10.222656 20.144531 Z M 13.371094 26.292969 C 14.382812 25.472656 15.324219 24.710938 16.144531 24.054688 C 16.25 24.046875 16.363281 24.046875 16.472656 24.054688 C 16.707031 24.074219 16.941406 24.125 17.140625 24.242188 C 17.222656 24.292969 17.292969 24.359375 17.351562 24.429688 C 16.976562 25.070312 16.601562 25.710938 16.230469 26.351562 C 15.925781 26.882812 15.625 27.414062 15.320312 27.945312 C 14.9375 27.152344 14.230469 26.507812 13.371094 26.292969 Z M 24.65625 16.144531 C 24.675781 16.148438 24.6875 16.144531 24.699219 16.140625 C 25.230469 16.117188 25.757812 16.027344 26.269531 15.867188 C 25.035156 16.863281 23.851562 17.808594 22.730469 18.6875 C 22.183594 18.683594 21.632812 18.589844 21.113281 18.421875 C 20.6875 18.285156 20.28125 18.070312 19.929688 17.792969 C 19.882812 17.753906 19.789062 17.667969 19.726562 17.613281 C 19.859375 16.59375 20 15.589844 20.140625 14.609375 C 20.570312 14.953125 21.039062 15.234375 21.53125 15.46875 C 22.492188 15.933594 23.554688 16.167969 24.609375 16.140625 C 24.625 16.144531 24.640625 16.144531 24.65625 16.144531 Z M 9.136719 15.535156 C 9.972656 13.78125 10.53125 11.761719 10.277344 9.855469 C 10.519531 10.199219 10.761719 10.542969 11.003906 10.886719 C 10.6875 12.535156 10.066406 14.136719 9.136719 15.535156 Z M 8.644531 16.484375 C 8.648438 16.476562 8.65625 16.472656 8.660156 16.46875 C 8.660156 16.464844 8.660156 16.460938 8.664062 16.460938 C 9.386719 15.554688 9.976562 14.542969 10.410156 13.480469 C 10.726562 12.699219 10.960938 11.890625 11.132812 11.066406 C 11.460938 11.53125 11.796875 11.996094 12.128906 12.460938 C 11.320312 15.164062 9.753906 17.753906 7.351562 19.308594 C 7.199219 19.402344 7.039062 19.496094 6.882812 19.570312 C 6.34375 19.472656 5.808594 19.371094 5.269531 19.265625 C 6.582031 18.597656 7.722656 17.628906 8.644531 16.484375 Z M 26.308594 17.585938 C 26.3125 17.613281 26.320312 17.636719 26.324219 17.664062 C 23.433594 19.15625 21.253906 20.316406 20.09375 20.9375 C 20.9375 20.292969 21.835938 19.597656 22.785156 18.851562 C 22.8125 18.851562 22.835938 18.832031 22.847656 18.804688 C 23.992188 17.902344 25.203125 16.9375 26.46875 15.917969 C 26.257812 16.445312 26.210938 17.03125 26.308594 17.585938 Z M 6.648438 4.21875 C 7.230469 4.449219 7.824219 4.640625 8.425781 4.8125 C 12.699219 6.011719 17.453125 6.015625 21.523438 4.136719 C 21.011719 4.546875 20 5.277344 18.523438 5.953125 C 16.503906 6.875 13.183594 7.871094 8.8125 7.410156 C 8.800781 7.40625 8.789062 7.398438 8.777344 7.394531 C 8.40625 6.847656 8.035156 6.300781 7.667969 5.753906 C 7.324219 5.242188 6.988281 4.730469 6.648438 4.21875 Z M 8.210938 27.542969 C 8.058594 25.046875 7.472656 22.496094 6.035156 20.414062 C 5.792969 20.066406 5.523438 19.742188 5.238281 19.429688 C 5.769531 19.53125 6.304688 19.632812 6.839844 19.730469 C 7.816406 21.136719 8.449219 22.765625 8.8125 24.433594 C 9.164062 26.109375 9.292969 27.839844 9.148438 29.546875 C 8.824219 29.816406 8.5 30.085938 8.175781 30.355469 C 8.261719 29.417969 8.261719 28.480469 8.210938 27.542969 Z M 37.191406 6.886719 C 35.492188 7 33.777344 6.957031 32.09375 6.703125 C 28.738281 6.203125 25.386719 4.773438 23.140625 2.164062 C 23.082031 2.089844 23.019531 2.019531 22.960938 1.941406 C 26.386719 4.855469 31.121094 5.757812 35.527344 5.40625 C 36.964844 5.296875 38.394531 5.082031 39.792969 4.714844 C 38.921875 5.445312 38.054688 6.167969 37.191406 6.886719 Z M 17.164062 3.070312 C 17.171875 3.066406 17.175781 3.0625 17.179688 3.0625 C 18.902344 2.816406 20.675781 2.347656 22.351562 1.535156 C 22.230469 2.101562 22.070312 2.859375 21.882812 3.78125 C 21.707031 3.859375 21.390625 4.011719 21.246094 4.078125 C 21.113281 4.140625 20.714844 4.300781 20.566406 4.363281 C 20.347656 4.441406 20.09375 4.535156 19.871094 4.613281 C 18.082031 5.210938 16.191406 5.484375 14.304688 5.480469 C 12.007812 5.472656 9.710938 5.085938 7.53125 4.367188 C 7.382812 4.316406 7.238281 4.265625 7.089844 4.210938 C 7.585938 4.234375 8.082031 4.238281 8.578125 4.242188 C 10.582031 4.234375 12.589844 4.066406 14.5625 3.695312 L 15.21875 3.566406 L 15.871094 3.410156 L 16.195312 3.335938 L 16.519531 3.246094 Z M 5.605469 27.691406 C 5.511719 26.136719 5.171875 24.5625 4.601562 23.011719 C 3.804688 20.84375 2.765625 19.324219 2.410156 18.835938 C 2.425781 18.839844 2.433594 18.839844 2.433594 18.839844 L 3.617188 19.105469 C 4.070312 19.199219 4.519531 19.289062 4.972656 19.378906 C 5.429688 19.875 5.851562 20.394531 6.207031 20.972656 C 6.621094 21.660156 6.964844 22.402344 7.222656 23.164062 C 7.867188 25.050781 8.101562 27.058594 8.078125 29.046875 C 8.070312 29.53125 8.050781 30.023438 8 30.503906 C 6.941406 31.386719 5.902344 32.269531 4.921875 33.113281 C 5.488281 31.363281 5.722656 29.539062 5.605469 27.691406 Z M 9.292969 39.097656 C 8.839844 39.984375 8.394531 40.875 7.960938 41.769531 C 7.898438 41.476562 7.816406 41.191406 7.71875 40.902344 C 7.09375 39.078125 5.761719 37.507812 4.046875 36.617188 C 3.5 36.328125 2.925781 36.105469 2.332031 35.933594 C 2.890625 35.894531 3.449219 35.867188 4.003906 35.929688 C 6.238281 36.089844 7.792969 37.585938 9.292969 39.097656 Z M 7.890625 37.546875 C 6.152344 35.992188 4.390625 35.5625 2.15625 35.777344 C 2.9375 35.0625 3.832031 34.273438 4.789062 33.445312 C 6.699219 33.332031 8.207031 34.136719 9.140625 34.832031 C 10.027344 35.496094 10.574219 36.191406 10.703125 36.363281 C 10.253906 37.222656 9.808594 38.078125 9.367188 38.941406 C 8.890625 38.464844 8.40625 37.988281 7.890625 37.546875 Z M 30.277344 16.625 C 29.492188 17.183594 28.726562 17.757812 27.964844 18.339844 C 24.972656 20.644531 22.078125 23.082031 19.335938 25.679688 C 19.285156 25.441406 19.242188 25.203125 19.207031 24.960938 C 21.171875 23.066406 23.242188 21.277344 25.355469 19.554688 C 26.875 18.320312 28.421875 17.121094 30 15.972656 C 30.019531 16.078125 30.070312 16.207031 30.125 16.289062 C 30.191406 16.390625 30.269531 16.472656 30.34375 16.566406 C 30.320312 16.585938 30.300781 16.605469 30.277344 16.625 Z M 35.019531 13.265625 C 34.628906 12.128906 34.5625 10.878906 34.796875 9.703125 C 34.832031 9.550781 34.890625 9.300781 34.941406 9.152344 C 34.941406 9.152344 35.011719 8.941406 35.023438 8.90625 C 35.734375 8.3125 36.453125 7.714844 37.179688 7.113281 C 37.226562 7.273438 37.277344 7.433594 37.339844 7.589844 C 37.378906 7.691406 37.421875 7.792969 37.464844 7.894531 C 37.464844 7.894531 37.464844 7.898438 37.464844 7.898438 C 37.472656 7.90625 37.476562 7.917969 37.480469 7.929688 C 37.519531 8.015625 37.558594 8.097656 37.601562 8.183594 C 38.0625 9.253906 38.074219 10.492188 37.714844 11.597656 C 37.660156 11.757812 37.585938 11.921875 37.480469 12.058594 C 36.644531 12.464844 35.824219 12.867188 35.019531 13.265625 Z M 40.140625 10.769531 C 38.75 9.949219 37.761719 8.53125 37.316406 6.996094 C 37.945312 6.472656 38.582031 5.941406 39.21875 5.410156 C 39.246094 5.570312 39.277344 5.765625 39.300781 5.890625 C 39.414062 6.367188 39.566406 6.855469 39.769531 7.304688 C 40.140625 8.160156 40.699219 8.945312 41.375 9.589844 C 41.519531 9.722656 41.667969 9.84375 41.828125 9.960938 C 41.261719 10.234375 40.695312 10.5 40.140625 10.769531 Z M 41.941406 9.910156 C 41.773438 9.785156 41.613281 9.644531 41.457031 9.503906 C 40.800781 8.863281 40.261719 8.085938 39.886719 7.25 C 39.699219 6.835938 39.550781 6.386719 39.441406 5.945312 C 39.410156 5.847656 39.390625 5.707031 39.371094 5.605469 C 39.371094 5.605469 39.332031 5.410156 39.316406 5.328125 C 39.582031 5.105469 39.851562 4.878906 40.121094 4.65625 C 40.191406 4.734375 40.292969 4.847656 40.332031 4.890625 C 40.847656 5.4375 41.449219 5.894531 42.105469 6.257812 C 42.804688 7.253906 43.832031 7.96875 44.90625 8.515625 C 43.90625 8.980469 42.917969 9.445312 41.941406 9.910156 Z M 45.089844 8.429688 C 44.949219 8.386719 44.816406 8.328125 44.6875 8.265625 C 44.261719 8.0625 43.875 7.789062 43.5 7.511719 C 43.355469 7.398438 43.1875 7.253906 43.050781 7.132812 C 42.859375 6.949219 42.65625 6.746094 42.5 6.53125 C 42.46875 6.496094 42.441406 6.460938 42.417969 6.421875 C 42.433594 6.429688 42.453125 6.441406 42.46875 6.449219 C 43.785156 7.085938 45.253906 7.371094 46.707031 7.402344 C 46.914062 7.40625 47.121094 7.402344 47.328125 7.394531 C 46.578125 7.738281 45.832031 8.085938 45.089844 8.429688 Z M 63.710938 0.558594 C 63.695312 0.515625 63.648438 0.496094 63.605469 0.511719 C 61.234375 1.410156 58.789062 2.394531 56.324219 3.433594 C 56.289062 3.441406 54.160156 3.824219 51.503906 3.824219 C 49.078125 3.824219 45.710938 3.496094 43.347656 1.949219 C 43.894531 1.492188 44.445312 1.03125 44.988281 0.574219 C 45.023438 0.542969 45.027344 0.492188 45 0.457031 C 44.96875 0.421875 44.917969 0.417969 44.882812 0.445312 C 44.3125 0.925781 43.742188 1.40625 43.167969 1.886719 C 37.921875 3.980469 32.644531 3.453125 29.144531 2.640625 C 25.339844 1.757812 22.75 0.359375 22.722656 0.34375 C 22.703125 0.332031 22.675781 0.332031 22.652344 0.339844 C 22.628906 0.351562 22.609375 0.371094 22.605469 0.398438 C 22.601562 0.414062 22.523438 0.746094 22.394531 1.332031 C 18.46875 3.277344 13.96875 3.296875 10.878906 2.972656 C 7.710938 2.636719 5.347656 1.878906 5.066406 1.785156 C 4.75 1.289062 4.433594 0.792969 4.121094 0.292969 C 4.09375 0.253906 4.042969 0.246094 4.007812 0.269531 C 3.980469 0.285156 3.964844 0.3125 3.96875 0.34375 C 4.0625 1.890625 4.0625 3.445312 4 4.996094 C 3.773438 9.273438 3.128906 14.84375 0.0585938 18.0625 C 0.046875 18.074219 0.0390625 18.085938 0.0351562 18.101562 C 0.03125 18.109375 0.03125 18.117188 0.03125 18.125 C 0.03125 18.125 0.03125 18.128906 0.03125 18.128906 C 0.03125 18.136719 0.0351562 18.144531 0.0351562 18.152344 C 0.0351562 18.152344 0.0351562 18.15625 0.0390625 18.160156 C 0.0390625 18.164062 0.0429688 18.167969 0.046875 18.171875 C 2.324219 22.121094 3.742188 26.882812 3.152344 31.457031 C 2.945312 32.984375 2.492188 34.480469 1.796875 35.851562 C 1.792969 35.855469 1.792969 35.859375 1.792969 35.863281 C 1.792969 35.867188 1.789062 35.871094 1.789062 35.878906 C 1.789062 35.882812 1.789062 35.886719 1.789062 35.890625 C 1.789062 35.890625 1.789062 35.894531 1.789062 35.894531 C 1.296875 36.347656 0.855469 36.765625 0.476562 37.144531 C 0.457031 37.160156 0.449219 37.1875 0.449219 37.210938 C 0.453125 37.234375 0.46875 37.257812 0.488281 37.273438 C 0.503906 37.28125 1.992188 38.191406 3.359375 39.816406 C 4.613281 41.316406 6.019531 43.746094 5.59375 46.824219 C 5.59375 46.824219 5.59375 46.824219 5.59375 46.828125 C 4.878906 48.429688 4.191406 50.046875 3.535156 51.675781 C 2.496094 54.316406 1.546875 57 0.878906 59.757812 C 0.660156 60.679688 0.472656 61.609375 0.34375 62.546875 C 0.339844 62.59375 0.371094 62.632812 0.414062 62.640625 C 0.460938 62.648438 0.5 62.617188 0.507812 62.570312 C 1.050781 58.832031 2.320312 55.242188 3.6875 51.738281 C 4.296875 50.230469 4.9375 48.738281 5.59375 47.253906 L 5.640625 59.371094 C 5.640625 59.390625 5.65625 59.402344 5.675781 59.402344 C 5.691406 59.402344 5.707031 59.390625 5.707031 59.371094 L 5.757812 46.890625 C 6.472656 45.285156 7.214844 43.691406 7.976562 42.109375 C 7.996094 42.09375 8.003906 42.074219 8.003906 42.050781 C 8.433594 41.164062 8.875 40.285156 9.316406 39.40625 C 9.351562 42.078125 9.851562 44.71875 10.46875 47.3125 C 10.6875 48.210938 10.921875 49.105469 11.191406 49.988281 C 11.199219 50.015625 11.222656 50.027344 11.25 50.019531 C 11.273438 50.011719 11.285156 49.988281 11.277344 49.960938 C 10.765625 48.191406 10.34375 46.390625 10.011719 44.578125 C 9.691406 42.773438 9.457031 40.941406 9.476562 39.109375 C 12.328125 34.605469 15.792969 30.582031 19.53125 26.800781 C 19.667969 27.199219 19.828125 27.589844 20.011719 27.96875 C 20.148438 28.253906 20.296875 28.53125 20.472656 28.796875 C 20.488281 28.820312 20.519531 28.824219 20.539062 28.808594 C 20.5625 28.796875 20.566406 28.765625 20.550781 28.742188 C 20.382812 28.484375 20.238281 28.203125 20.101562 27.921875 C 19.917969 27.53125 19.757812 27.125 19.621094 26.710938 C 23.03125 23.269531 26.664062 20.035156 30.261719 16.832031 C 30.332031 16.785156 30.398438 16.738281 30.464844 16.6875 C 30.492188 16.695312 30.515625 16.691406 30.539062 16.675781 C 30.574219 16.648438 30.585938 16.601562 30.566406 16.5625 C 31.328125 15.886719 32.085938 15.210938 32.84375 14.53125 C 34.335938 13.785156 35.90625 13.007812 37.542969 12.210938 C 37.5625 12.207031 37.578125 12.199219 37.59375 12.183594 C 39.988281 11.015625 42.515625 9.808594 45.109375 8.601562 C 45.125 8.597656 45.140625 8.589844 45.15625 8.578125 C 48.777344 6.894531 52.53125 5.210938 56.238281 3.648438 L 56.230469 3.703125 C 56.1875 4.042969 56.183594 4.386719 56.175781 4.726562 C 56.175781 5.398438 56.210938 6.085938 56.25 6.757812 C 56.320312 7.839844 56.417969 8.917969 56.535156 9.992188 C 56.539062 10.019531 56.5625 10.039062 56.585938 10.035156 C 56.613281 10.03125 56.632812 10.007812 56.628906 9.984375 C 56.464844 8.238281 56.320312 6.484375 56.328125 4.726562 C 56.335938 4.394531 56.34375 4.054688 56.390625 3.726562 C 56.390625 3.726562 56.40625 3.632812 56.414062 3.574219 C 58.867188 2.539062 61.304688 1.558594 63.664062 0.664062 C 63.707031 0.648438 63.730469 0.601562 63.710938 0.558594 " fill-opacity="1" fill-rule="nonzero"/></g></svg>